# xmcd
#
# Track frame offsets:
#	150
#	11343
#	28142
#	47708
#	73805
#	94225
#	114346
#	128349
#	143611
#	162487
#	180849
#	209127
#	225674
#	241932
#	256258
#
# Disc length: 3619 seconds
#
# Revision: 1
# Processed by: cddbd v1.5.2PL0 Copyright (c) Steve Scherf et al.
# Submitted via: audiograbber 1.83.01
#
DISCID=c40e210f
DTITLE=MARTINA MCBRIDE - CB90271R
DYEAR=1900
DGENRE=KARAOKE
TTITLE0=YOU AIN'T WOMAN ENOUGH
TTITLE1=WHEN GOD FEARING WOMAN GET THE BLUES
TTITLE2=CONCRETE ANGEL
TTITLE3=LOVE'S THE ONLY HOUSE
TTITLE4=WHERE WOULD YOU BE
TTITLE5=STILL HOLDING ON
TTITLE6=I LOVE YOU
TTITLE7=IN MY DAUGHTER'S EYES
TTITLE8=WHATEVER YOU SAY
TTITLE9=HOW FAR
TTITLE10=GOD'S WILL
TTITLE11=THERE YOU ARE
TTITLE12=TRIP AROUND THE SUN
TTITLE13=CITY OF LOVE
TTITLE14=OVER THE RAINBOW
EXTD=
EXTT0=
EXTT1=
EXTT2=
EXTT3=
EXTT4=
EXTT5=
EXTT6=
EXTT7=
EXTT8=
EXTT9=
EXTT10=
EXTT11=
EXTT12=
EXTT13=
EXTT14=
PLAYORDER=
